<mxfile host="Electron" agent="Mozilla/5.0 (Windows NT 10.0; Win64; x64) AppleWebKit/537.36 (KHTML, like Gecko) draw.io/24.7.17 Chrome/128.0.6613.36 Electron/32.0.1 Safari/537.36" version="24.7.17">
  <diagram name="Trang-1" id="q0_ZPHrenQi6b4O-LOXw">
    <mxGraphModel dx="1434" dy="844" grid="1" gridSize="10" guides="1" tooltips="1" connect="1" arrows="1" fold="1" page="1" pageScale="1" pageWidth="850" pageHeight="1100" math="0" shadow="0">
      <root>
        <mxCell id="0" />
        <mxCell id="1" parent="0" />
        <mxCell id="p5-h04JHq0oAvp4umUWh-6" style="edgeStyle=orthogonalEdgeStyle;rounded=0;orthogonalLoop=1;jettySize=auto;html=1;exitX=0.5;exitY=1;exitDx=0;exitDy=0;entryX=0.5;entryY=0;entryDx=0;entryDy=0;" edge="1" parent="1" source="p5-h04JHq0oAvp4umUWh-1" target="p5-h04JHq0oAvp4umUWh-3">
          <mxGeometry relative="1" as="geometry" />
        </mxCell>
        <mxCell id="p5-h04JHq0oAvp4umUWh-1" value="Bắt đầu kiểm tra" style="rounded=1;whiteSpace=wrap;html=1;" vertex="1" parent="1">
          <mxGeometry x="365" y="20" width="120" height="60" as="geometry" />
        </mxCell>
        <mxCell id="p5-h04JHq0oAvp4umUWh-8" style="edgeStyle=orthogonalEdgeStyle;rounded=0;orthogonalLoop=1;jettySize=auto;html=1;exitX=0.5;exitY=1;exitDx=0;exitDy=0;entryX=0.5;entryY=0;entryDx=0;entryDy=0;" edge="1" parent="1" source="p5-h04JHq0oAvp4umUWh-2" target="p5-h04JHq0oAvp4umUWh-5">
          <mxGeometry relative="1" as="geometry" />
        </mxCell>
        <mxCell id="p5-h04JHq0oAvp4umUWh-9" style="edgeStyle=orthogonalEdgeStyle;rounded=0;orthogonalLoop=1;jettySize=auto;html=1;exitX=0;exitY=0.5;exitDx=0;exitDy=0;entryX=1;entryY=0.5;entryDx=0;entryDy=0;" edge="1" parent="1" source="p5-h04JHq0oAvp4umUWh-2" target="p5-h04JHq0oAvp4umUWh-4">
          <mxGeometry relative="1" as="geometry" />
        </mxCell>
        <mxCell id="p5-h04JHq0oAvp4umUWh-2" value="Nếu 2 đỉnh đó có cạnh với nhau" style="rhombus;whiteSpace=wrap;html=1;" vertex="1" parent="1">
          <mxGeometry x="355" y="270" width="140" height="140" as="geometry" />
        </mxCell>
        <mxCell id="p5-h04JHq0oAvp4umUWh-7" style="edgeStyle=orthogonalEdgeStyle;rounded=0;orthogonalLoop=1;jettySize=auto;html=1;exitX=0.5;exitY=1;exitDx=0;exitDy=0;entryX=0.5;entryY=0;entryDx=0;entryDy=0;" edge="1" parent="1" source="p5-h04JHq0oAvp4umUWh-3" target="p5-h04JHq0oAvp4umUWh-2">
          <mxGeometry relative="1" as="geometry" />
        </mxCell>
        <mxCell id="p5-h04JHq0oAvp4umUWh-3" value="Nhận đỉnh đầu, đỉnh cuối" style="shape=parallelogram;perimeter=parallelogramPerimeter;whiteSpace=wrap;html=1;fixedSize=1;" vertex="1" parent="1">
          <mxGeometry x="340" y="130" width="170" height="85" as="geometry" />
        </mxCell>
        <mxCell id="p5-h04JHq0oAvp4umUWh-12" style="edgeStyle=orthogonalEdgeStyle;rounded=0;orthogonalLoop=1;jettySize=auto;html=1;exitX=0.5;exitY=1;exitDx=0;exitDy=0;entryX=0;entryY=0.5;entryDx=0;entryDy=0;" edge="1" parent="1" source="p5-h04JHq0oAvp4umUWh-4" target="p5-h04JHq0oAvp4umUWh-10">
          <mxGeometry relative="1" as="geometry" />
        </mxCell>
        <mxCell id="p5-h04JHq0oAvp4umUWh-4" value="Trả về False" style="rounded=0;whiteSpace=wrap;html=1;" vertex="1" parent="1">
          <mxGeometry x="170" y="310" width="120" height="60" as="geometry" />
        </mxCell>
        <mxCell id="p5-h04JHq0oAvp4umUWh-11" style="edgeStyle=orthogonalEdgeStyle;rounded=0;orthogonalLoop=1;jettySize=auto;html=1;exitX=0.5;exitY=1;exitDx=0;exitDy=0;entryX=0.5;entryY=0;entryDx=0;entryDy=0;" edge="1" parent="1" source="p5-h04JHq0oAvp4umUWh-5" target="p5-h04JHq0oAvp4umUWh-10">
          <mxGeometry relative="1" as="geometry" />
        </mxCell>
        <mxCell id="p5-h04JHq0oAvp4umUWh-5" value="Trả về True" style="rounded=0;whiteSpace=wrap;html=1;" vertex="1" parent="1">
          <mxGeometry x="365" y="470" width="120" height="60" as="geometry" />
        </mxCell>
        <mxCell id="p5-h04JHq0oAvp4umUWh-10" value="Kết thúc kiểm tra" style="rounded=1;whiteSpace=wrap;html=1;" vertex="1" parent="1">
          <mxGeometry x="365" y="590" width="120" height="60" as="geometry" />
        </mxCell>
        <mxCell id="p5-h04JHq0oAvp4umUWh-13" value="Sai" style="text;html=1;align=center;verticalAlign=middle;resizable=0;points=[];autosize=1;strokeColor=none;fillColor=none;" vertex="1" parent="1">
          <mxGeometry x="315" y="311" width="40" height="30" as="geometry" />
        </mxCell>
        <mxCell id="p5-h04JHq0oAvp4umUWh-14" value="Đúng" style="text;html=1;align=center;verticalAlign=middle;resizable=0;points=[];autosize=1;strokeColor=none;fillColor=none;" vertex="1" parent="1">
          <mxGeometry x="375" y="410" width="50" height="30" as="geometry" />
        </mxCell>
      </root>
    </mxGraphModel>
  </diagram>
</mxfile>
